# Blender 5.0.1
# www.blender.org
mtllib bird.mtl
o Cube
v 0.683838 0.043501 -0.389857
v 0.151338 0.873694 -0.419505
v 0.146122 -0.406396 -0.257043
v -0.048837 -0.451343 -0.350523
v -0.414873 -0.458266 -0.303534
v -0.660287 -0.138190 -0.303534
v -0.525076 0.146378 -0.434626
v -0.694192 -0.426630 -0.213773
v -0.766961 -0.404934 -0.213773
v 0.269286 1.075449 -0.317947
v 0.824545 0.661206 -0.389857
v 0.702354 0.906537 -0.340816
v 0.364352 1.274644 -0.290532
v 0.848236 1.146141 -0.172804
v 0.470824 1.414206 -0.221005
v 0.651060 1.391081 -0.241507
v -1.255222 -0.874264 -0.416370
v -1.418111 -0.759008 -0.416370
v -0.357943 -0.468558 -0.314766
v 0.830910 -0.000942 0.000000
v 0.028363 0.797632 0.000000
v 0.146122 -0.406396 0.000000
v -0.414873 -0.458266 0.000000
v -0.048837 -0.451343 0.000000
v -0.660287 -0.138190 0.000000
v -0.548346 0.176728 0.000000
v -0.694192 -0.426630 0.000000
v -0.766961 -0.404934 0.000000
v 0.807968 0.768793 0.000000
v 0.886529 0.558612 0.000000
v 0.075178 1.072822 0.000000
v 0.210272 1.337415 0.000000
v 0.825404 1.450647 0.000000
v 0.848236 0.929654 0.000000
v 0.669716 1.498369 0.000000
v 0.472477 1.505975 0.000000
v -1.255222 -0.874264 0.000000
v -1.418111 -0.759008 0.000000
v -0.357943 -0.468558 0.000000
v 0.662099 1.120109 -0.401546
v 0.637904 1.271874 -0.322161
v -0.333774 -0.461638 -0.167365
v -0.333774 -0.461638 -0.249005
v -0.273166 -0.458263 -0.249005
v -0.273166 -0.458263 -0.167365
v 0.145881 0.771434 -0.464794
v 0.678380 0.045277 -0.585680
v 0.140664 -0.404620 -0.452865
v -0.530533 0.117613 -0.529256
v 0.819088 0.589487 -0.435146
v -0.363401 -0.466783 -0.435479
v -0.054294 -0.449567 -0.445152
v -1.027687 -0.449905 -0.361520
v -1.028910 -0.449507 -0.391870
v -1.065146 -0.318924 -0.424120
v -1.066369 -0.318526 -0.457638
v -0.161694 0.472846 -0.427066
v -0.182563 0.662902 0.000000
v -0.167800 0.428695 -0.497025
v 0.537054 0.665712 -0.511556
v 0.410549 0.394589 -0.654305
v -0.427849 -0.241432 -0.599632
v -1.066299 -0.409787 -0.451431
v -1.066830 -0.404050 -0.401340
v 0.316819 1.175046 -0.304240
v 0.821690 1.199478 -0.169314
v 0.142725 1.205119 0.000000
v 0.650001 1.195991 -0.361853
v 0.825404 1.273225 -0.155572
v 0.826008 1.268719 -0.157908
v 0.822811 1.272051 -0.161127
v 0.822760 1.273858 -0.160122
v 1.581396 1.252185 -0.008759
v 1.580405 1.271649 0.000000
v 1.580891 1.245328 0.000000
v 1.581250 1.260937 -0.007972
v 1.581138 1.267293 -0.007372
v 1.580648 1.258489 0.000000
v 1.581286 1.258747 -0.008169
v 0.683838 0.043501 0.389857
v 0.151338 0.873694 0.419505
v 0.146122 -0.406396 0.257043
v -0.048837 -0.451343 0.350523
v -0.414873 -0.458266 0.303534
v -0.660287 -0.138190 0.303534
v -0.525076 0.146378 0.434626
v -0.694192 -0.426630 0.213773
v -0.766961 -0.404934 0.213773
v 0.269286 1.075449 0.317947
v 0.824545 0.661206 0.389857
v 0.702354 0.906537 0.340816
v 0.364352 1.274644 0.290532
v 0.848236 1.146141 0.172804
v 0.470824 1.414206 0.221005
v 0.651060 1.391081 0.241507
v -1.255222 -0.874264 0.416370
v -1.418111 -0.759008 0.416370
v -0.357943 -0.468558 0.314766
v 0.662099 1.120109 0.401546
v 0.637904 1.271874 0.322161
v -0.333774 -0.461638 0.167365
v -0.333774 -0.461638 0.249005
v -0.273166 -0.458263 0.249005
v -0.273166 -0.458263 0.167365
v 0.145881 0.771434 0.464794
v 0.678380 0.045277 0.585680
v 0.140664 -0.404620 0.452865
v -0.530533 0.117613 0.529256
v 0.819088 0.589487 0.435146
v -0.363401 -0.466783 0.435479
v -0.054294 -0.449567 0.445152
v -1.027687 -0.449905 0.361520
v -1.028910 -0.449507 0.391870
v -1.065146 -0.318924 0.424120
v -1.066369 -0.318526 0.457638
v -0.161694 0.472846 0.427066
v -0.167800 0.428695 0.497025
v 0.537054 0.665712 0.511556
v 0.410549 0.394589 0.654305
v -0.427849 -0.241432 0.599632
v -1.066299 -0.409787 0.451431
v -1.066830 -0.404050 0.401340
v 0.316819 1.175046 0.304240
v 0.821690 1.199478 0.169314
v 0.650001 1.195991 0.361853
v 0.825404 1.273225 0.155572
v 0.826008 1.268719 0.157908
v 0.822811 1.272051 0.161127
v 0.822760 1.273858 0.160122
v 1.581396 1.252185 0.008759
v 1.581250 1.260937 0.007972
v 1.581138 1.267293 0.007372
v 1.581286 1.258747 0.008169
vn -0.0269 -0.9996 -0.0132
vn -0.9285 0.3713 -0.0000
vn -0.6973 0.6851 -0.2107
vn -0.2750 -0.2561 -0.9267
vn 0.9459 -0.1578 -0.2834
vn 0.9096 0.4089 -0.0742
vn 0.1154 0.3181 -0.9410
vn 0.8934 -0.2623 -0.3646
vn 0.0531 0.9164 -0.3967
vn -0.5472 0.7421 -0.3872
vn 0.7770 -0.0323 -0.6286
vn -0.4777 0.8785 -0.0000
vn 0.1493 0.2569 -0.9548
vn -0.3130 -0.2554 -0.9148
vn -0.1779 -0.9840 -0.0000
vn 0.2247 -0.9744 -0.0000
vn 0.0308 -0.9995 -0.0000
vn 0.6237 -0.7817 -0.0000
vn -0.5776 -0.8163 -0.0000
vn -0.7696 0.4108 -0.4888
vn -0.8670 0.3705 -0.3333
vn -0.1125 -0.9936 -0.0000
vn -0.9270 0.3724 -0.0445
vn 0.5505 -0.8149 -0.1811
vn -0.0676 0.5240 -0.8490
vn -0.1661 -0.2985 -0.9398
vn -0.2087 0.3231 -0.9231
vn 0.2753 -0.9614 -0.0000
vn 0.0627 -0.9952 0.0750
vn 0.0556 -0.9979 -0.0332
vn 0.0542 -0.9983 -0.0192
vn 0.3892 0.1962 -0.9000
vn 0.0758 -0.3147 -0.9462
vn 0.9708 -0.2384 0.0252
vn 0.2289 -0.9732 -0.0205
vn 0.6379 -0.7697 -0.0248
vn -0.5881 0.5284 -0.6123
vn 0.2142 0.6410 -0.7370
vn -0.7720 -0.6338 0.0487
vn -0.1100 0.2090 0.9717
vn -0.6424 0.7546 -0.1336
vn -0.2262 0.0866 -0.9702
vn -0.6249 0.7291 -0.2791
vn -0.7276 0.6548 -0.2047
vn -0.9999 0.0104 0.0076
vn -0.0357 -0.6525 -0.7569
vn -0.2039 0.2435 -0.9482
vn 0.0179 0.4592 -0.8881
vn -0.1473 0.3151 -0.9376
vn 0.6819 0.4070 -0.6077
vn -0.7756 0.4131 -0.4772
vn 0.8280 0.3271 -0.4555
vn 0.6014 0.4011 -0.6910
vn 0.6771 0.2691 -0.6849
vn 0.4883 0.6994 -0.5220
vn 0.2592 -0.6096 -0.7491
vn 0.1943 0.1418 -0.9706
vn 0.9971 0.0156 0.0739
vn 0.1534 0.6564 -0.7386
vn 0.9964 0.0148 0.0840
vn 0.1942 0.1524 -0.9690
vn -0.0269 -0.9996 0.0132
vn -0.6973 0.6851 0.2107
vn -0.2750 -0.2561 0.9267
vn 0.9459 -0.1578 0.2834
vn 0.9096 0.4089 0.0742
vn 0.1154 0.3181 0.9410
vn 0.8934 -0.2623 0.3646
vn 0.0531 0.9164 0.3967
vn -0.5472 0.7421 0.3872
vn 0.7770 -0.0323 0.6286
vn 0.1493 0.2569 0.9548
vn -0.3130 -0.2554 0.9148
vn -0.7696 0.4108 0.4888
vn -0.8670 0.3705 0.3333
vn -0.9270 0.3724 0.0445
vn 0.5505 -0.8149 0.1811
vn -0.0676 0.5240 0.8490
vn -0.1661 -0.2985 0.9398
vn -0.2087 0.3231 0.9231
vn 0.0627 -0.9952 -0.0750
vn 0.0556 -0.9979 0.0332
vn 0.0542 -0.9983 0.0192
vn 0.3892 0.1962 0.9000
vn 0.0758 -0.3147 0.9462
vn 0.9708 -0.2384 -0.0252
vn 0.2289 -0.9732 0.0205
vn 0.6379 -0.7697 0.0248
vn -0.5881 0.5284 0.6123
vn 0.2142 0.6410 0.7370
vn -0.7720 -0.6338 -0.0487
vn -0.1100 0.2090 -0.9717
vn -0.6424 0.7546 0.1336
vn -0.2262 0.0866 0.9702
vn -0.6249 0.7291 0.2791
vn -0.7276 0.6548 0.2047
vn -0.9999 0.0104 -0.0076
vn -0.0357 -0.6525 0.7569
vn -0.2039 0.2435 0.9482
vn 0.0179 0.4592 0.8881
vn -0.1473 0.3151 0.9376
vn 0.6819 0.4070 0.6077
vn -0.7756 0.4131 0.4772
vn 0.8280 0.3271 0.4555
vn 0.6014 0.4011 0.6910
vn 0.6771 0.2691 0.6849
vn 0.4883 0.6994 0.5220
vn 0.2592 -0.6096 0.7491
vn 0.1943 0.1418 0.9706
vn 0.9971 0.0156 -0.0739
vn 0.1534 0.6564 0.7386
vn 0.9964 0.0148 -0.0840
vn 0.1942 0.1524 0.9690
vt 0.328451 0.559145
vt 0.339774 0.682358
vt 0.265878 0.586537
vt 0.262924 0.582096
vt 0.102794 0.721177
vt 0.167264 0.683330
vt 0.218591 0.756638
vt 0.159934 0.774919
vt 0.000000 0.385543
vt 0.004780 0.305400
vt 0.110296 0.260726
vt 0.110029 0.413550
vt 0.322469 0.691141
vt 0.249308 0.747504
vt 0.483484 0.261750
vt 0.390997 0.296843
vt 0.285822 0.173255
vt 0.381044 0.132230
vt 0.225854 0.142037
vt 0.326119 0.090438
vt 0.101427 0.197706
vt 0.213967 0.052131
vt 0.290685 0.063678
vt 0.073519 0.026928
vt 0.122419 0.069152
vt 0.087542 0.098040
vt 0.040190 0.065900
vt 0.093918 0.142156
vt 0.011472 0.142329
vt 0.177302 0.116511
vt 0.213488 0.943687
vt 0.133214 1.000000
vt 0.247467 0.953689
vt 0.098204 0.603379
vt 0.381009 0.732056
vt 0.400457 0.714104
vt 0.459319 0.576991
vt 0.381671 0.529093
vt 0.424275 0.481592
vt 0.486405 0.490522
vt 0.383217 0.657141
vt 0.366635 0.648213
vt 0.307468 0.774423
vt 0.321873 0.997068
vt 0.097332 0.169562
vt 0.008660 0.181450
vt 0.005232 0.221667
vt 0.000000 0.628973
vt 0.146907 0.091758
vt 0.162937 0.103421
vt 0.356656 0.677128
vt 0.372466 0.685424
vt 0.360362 0.506563
vt 0.346877 0.308537
vt 0.242115 0.302950
vt 0.224920 0.235178
vt 0.290261 0.193841
vt 0.251631 0.496635
vt 0.378662 0.467278
vt 0.127309 0.284608
vt 0.128595 0.419248
vt 0.253477 0.582967
vt 0.250766 0.578459
vt 0.236964 0.582500
vt 0.138958 0.550300
vt 0.237876 0.577707
vt 0.191912 0.041613
vt 0.166086 0.029039
vt 0.169404 0.030429
vt 0.167937 0.031098
vt 0.166075 0.030552
vt 0.105455 -0.000000
vt 0.642712 0.148378
vt 0.578898 0.179137
vt 0.499626 0.004002
vt 0.503397 -0.000000
vt 0.564277 0.186735
vt 0.549531 0.193712
vt 0.490573 0.007574
vt 0.494819 0.004258
vt 0.496022 0.004194
vt 0.494901 0.003144
vt 0.486405 0.006287
s 0
usemtl Body
f 51/1/1 19/2/1 53/3/1 54/4/1
f 25/5/2 6/6/2 9/7/2 28/8/2
f 58/9/3 21/10/3 2/11/3 57/12/3
f 6/6/4 5/13/4 8/14/4 9/7/4
f 20/15/5 1/16/5 11/17/5 30/18/5
f 30/18/6 11/17/6 12/19/6 29/20/6
f 11/17/7 2/11/7 10/21/7 12/19/7
f 29/20/8 12/19/8 14/22/8 34/23/8
f 35/24/9 16/25/9 15/26/9 36/27/9
f 36/27/10 15/26/10 13/28/10 32/29/10
f 12/19/11 40/30/11 14/22/11
f 28/8/12 9/7/12 18/31/12 38/32/12
f 9/7/13 8/14/13 17/33/13 18/31/13
f 6/6/14 7/34/14 19/2/14 5/13/14
f 23/35/15 5/13/15 19/2/15 39/36/15
f 24/37/16 4/38/16 3/39/16 22/40/16
f 4/38/17 24/37/17 45/41/17 44/42/17
f 8/14/18 27/43/18 37/44/18 17/33/18
f 18/31/19 17/33/19 37/44/19 38/32/19
f 65/45/20 67/46/20 32/29/20 13/28/20
f 2/11/21 21/10/21 31/47/21 10/21/21
f 5/13/22 23/35/22 27/43/22 8/14/22
f 6/6/23 25/5/23 26/48/23 7/34/23
f 3/39/24 1/16/24 20/15/24 22/40/24
f 16/25/25 41/49/25 13/28/25 15/26/25
f 40/30/26 12/19/26 10/21/26
f 68/50/27 40/30/27 10/21/27 65/45/27
f 39/36/28 19/2/28 43/51/28 42/52/28
f 19/2/29 4/38/29 44/42/29 43/51/29
f 24/37/30 39/36/30 42/52/30 45/41/30
f 4/38/31 19/2/31 51/1/31 52/53/31
f 47/54/32 61/55/32 60/56/32 50/57/32
f 51/1/33 62/58/33 61/55/33 47/54/33 48/59/33 52/53/33
f 11/17/34 1/16/34 47/54/34 50/57/34
f 3/39/35 4/38/35 52/53/35 48/59/35
f 1/16/36 3/39/36 48/59/36 47/54/36
f 57/12/37 2/11/37 46/60/37 59/61/37
f 2/11/38 11/17/38 50/57/38 60/56/38 46/60/38
f 53/3/39 64/62/39 63/63/39 54/4/39
f 19/2/40 7/34/40 55/64/40 64/62/40 53/3/40
f 7/34/41 49/65/41 56/66/41 55/64/41
f 49/65/42 62/58/42 63/63/42 56/66/42
f 7/34/43 57/12/43 59/61/43 49/65/43
f 26/48/44 58/9/44 57/12/44 7/34/44
f 63/63/45 64/62/45 55/64/45 56/66/45
f 63/63/46 62/58/46 51/1/46 54/4/46
f 61/55/47 62/58/47 49/65/47 59/61/47 46/60/47
f 60/56/48 61/55/48 46/60/48
f 41/49/49 68/50/49 65/45/49 13/28/49
f 14/22/50 40/30/50 68/50/50 66/67/50
f 10/21/51 31/47/51 67/46/51 65/45/51
f 69/68/52 70/69/52 71/70/52 72/71/52
f 72/71/53 71/70/53 41/49/53 16/25/53
f 66/67/54 68/50/54 41/49/54 71/70/54 70/69/54
f 16/25/55 35/24/55 33/72/55 69/68/55 72/71/55
f 110/1/62 113/4/62 112/3/62 98/2/62
f 25/5/2 28/8/2 88/7/2 85/6/2
f 58/9/63 116/12/63 81/11/63 21/10/63
f 85/6/64 88/7/64 87/14/64 84/13/64
f 20/15/65 30/18/65 90/17/65 80/16/65
f 30/18/66 29/20/66 91/19/66 90/17/66
f 90/17/67 91/19/67 89/21/67 81/11/67
f 29/20/68 34/23/68 93/22/68 91/19/68
f 35/24/69 36/27/69 94/26/69 95/25/69
f 36/27/70 32/29/70 92/28/70 94/26/70
f 91/19/71 93/22/71 99/30/71
f 28/8/12 38/32/12 97/31/12 88/7/12
f 88/7/72 97/31/72 96/33/72 87/14/72
f 85/6/73 84/13/73 98/2/73 86/34/73
f 23/35/15 39/36/15 98/2/15 84/13/15
f 24/37/16 22/40/16 82/39/16 83/38/16
f 83/38/17 103/42/17 104/41/17 24/37/17
f 87/14/18 96/33/18 37/44/18 27/43/18
f 97/31/19 38/32/19 37/44/19 96/33/19
f 123/45/74 92/28/74 32/29/74 67/46/74
f 81/11/75 89/21/75 31/47/75 21/10/75
f 84/13/22 87/14/22 27/43/22 23/35/22
f 85/6/76 86/34/76 26/48/76 25/5/76
f 82/39/77 22/40/77 20/15/77 80/16/77
f 95/25/78 94/26/78 92/28/78 100/49/78
f 99/30/79 89/21/79 91/19/79
f 125/50/80 123/45/80 89/21/80 99/30/80
f 39/36/28 101/52/28 102/51/28 98/2/28
f 98/2/81 102/51/81 103/42/81 83/38/81
f 24/37/82 104/41/82 101/52/82 39/36/82
f 83/38/83 111/53/83 110/1/83 98/2/83
f 106/54/84 109/57/84 118/56/84 119/55/84
f 110/1/85 111/53/85 107/59/85 106/54/85 119/55/85 120/58/85
f 90/17/86 109/57/86 106/54/86 80/16/86
f 82/39/87 107/59/87 111/53/87 83/38/87
f 80/16/88 106/54/88 107/59/88 82/39/88
f 116/12/89 117/61/89 105/60/89 81/11/89
f 81/11/90 105/60/90 118/56/90 109/57/90 90/17/90
f 112/3/91 113/4/91 121/63/91 122/62/91
f 98/2/92 112/3/92 122/62/92 114/64/92 86/34/92
f 86/34/93 114/64/93 115/66/93 108/65/93
f 108/65/94 115/66/94 121/63/94 120/58/94
f 86/34/95 108/65/95 117/61/95 116/12/95
f 26/48/96 86/34/96 116/12/96 58/9/96
f 121/63/97 115/66/97 114/64/97 122/62/97
f 121/63/98 113/4/98 110/1/98 120/58/98
f 119/55/99 105/60/99 117/61/99 108/65/99 120/58/99
f 118/56/100 105/60/100 119/55/100
f 100/49/101 92/28/101 123/45/101 125/50/101
f 93/22/102 124/67/102 125/50/102 99/30/102
f 89/21/103 123/45/103 67/46/103 31/47/103
f 126/68/104 129/71/104 128/70/104 127/69/104
f 129/71/105 95/25/105 100/49/105 128/70/105
f 124/67/106 127/69/106 128/70/106 100/49/106 125/50/106
f 95/25/107 129/71/107 126/68/107 33/72/107 35/24/107
usemtl Beak
f 34/73/56 14/74/56 73/75/56 75/76/56
f 66/77/57 70/78/57 77/79/57 76/80/57 79/81/57
f 73/75/58 79/81/58 78/82/58 75/76/58
f 69/68/59 33/72/59 74/83/59 77/79/59 70/78/59
f 78/82/60 79/81/60 76/80/60 77/79/60 74/83/60
f 79/81/61 73/75/61 14/74/61 66/77/61
f 34/73/108 75/76/108 130/75/108 93/74/108
f 124/77/109 133/81/109 131/80/109 132/79/109 127/78/109
f 130/75/110 75/76/110 78/82/110 133/81/110
f 126/68/111 127/78/111 132/79/111 74/83/111 33/72/111
f 78/82/112 74/83/112 132/79/112 131/80/112 133/81/112
f 133/81/113 124/77/113 93/74/113 130/75/113
o Plane
v 0.624262 1.338143 -0.343413
v 0.812846 1.341904 -0.187695
v 0.689781 1.114389 -0.417357
v 0.878366 1.118150 -0.261639
v 0.689781 1.114389 -0.417357
v 0.624262 1.338143 -0.343413
v 0.812846 1.341904 -0.187695
v 0.878366 1.118150 -0.261639
v 0.689781 1.114389 -0.417357
v 0.624262 1.338143 -0.343413
v 0.812846 1.341904 -0.187695
v 0.878366 1.118150 -0.261639
v 0.624262 1.338143 0.343413
v 0.812846 1.341904 0.187695
v 0.689781 1.114389 0.417357
v 0.878366 1.118150 0.261639
v 0.689781 1.114389 0.417357
v 0.624262 1.338143 0.343413
v 0.812846 1.341904 0.187695
v 0.878366 1.118150 0.261639
v 0.689781 1.114389 0.417357
v 0.624262 1.338143 0.343413
v 0.812846 1.341904 0.187695
v 0.878366 1.118150 0.261639
vn -0.5777 -0.4036 0.7094
vn 0.5777 0.4036 -0.7094
vn -0.5777 -0.4036 -0.7094
vn 0.5777 0.4036 0.7094
vt 0.000000 0.000000
vt 0.000000 1.000000
vt 1.000000 1.000000
vt 1.000000 0.000000
s 0
usemtl Eye
f 134/84/114 136/85/114 137/86/114 135/87/114
f 140/87/115 141/86/115 145/86/115 144/87/115
f 137/86/115 136/85/115 138/85/115 141/86/115
f 134/84/115 135/87/115 140/87/115 139/84/115
f 135/87/115 137/86/115 141/86/115 140/87/115
f 136/85/115 134/84/115 139/84/115 138/85/115
f 143/84/115 144/87/115 145/86/115 142/85/115
f 138/85/115 139/84/115 143/84/115 142/85/115
f 141/86/115 138/85/115 142/85/115 145/86/115
f 139/84/115 140/87/115 144/87/115 143/84/115
f 146/84/116 147/87/116 149/86/116 148/85/116
f 152/87/115 156/87/115 157/86/115 153/86/115
f 149/86/115 153/86/115 150/85/115 148/85/115
f 146/84/115 151/84/115 152/87/115 147/87/115
f 147/87/115 152/87/115 153/86/115 149/86/115
f 148/85/115 150/85/115 151/84/115 146/84/115
f 155/84/117 154/85/117 157/86/117 156/87/117
f 150/85/115 154/85/115 155/84/115 151/84/115
f 153/86/115 157/86/115 154/85/115 150/85/115
f 151/84/115 155/84/115 156/87/115 152/87/115
o Cube.001
v -0.333774 -0.461638 -0.167365
v -0.333774 -0.461638 -0.249005
v -0.273166 -0.458263 -0.249005
v -0.273166 -0.458263 -0.167365
v -0.177033 -1.136467 -0.302966
v -0.177033 -1.136467 -0.333372
v -0.154460 -1.135210 -0.333372
v -0.154460 -1.135210 -0.302966
v 0.461568 -1.134151 -0.550674
v 0.412153 -1.134151 -0.085665
v 0.465890 -1.134151 -0.531143
v 0.507970 -1.134151 -0.340962
v 0.408324 -1.134151 -0.102968
v 0.145739 -1.134719 -0.368663
v 0.119822 -1.134789 -0.287307
v -0.389362 -1.136467 -0.313598
v -0.389362 -1.136467 -0.322741
v -0.333774 -0.461638 0.167365
v -0.333774 -0.461638 0.249005
v -0.273166 -0.458263 0.249005
v -0.273166 -0.458263 0.167365
v -0.177033 -1.136467 0.302966
v -0.177033 -1.136467 0.333372
v -0.154460 -1.135210 0.333372
v -0.154460 -1.135210 0.302966
v 0.461568 -1.134151 0.550674
v 0.412153 -1.134151 0.085665
v 0.465890 -1.134151 0.531143
v 0.507970 -1.134151 0.340962
v 0.408324 -1.134151 0.102968
v 0.145739 -1.134719 0.368663
v 0.119822 -1.134789 0.287307
v -0.389362 -1.136467 0.313598
v -0.389362 -1.136467 0.322741
vn -0.6641 -0.2925 0.6881
vn -0.7629 -0.0973 -0.6392
vn 0.6878 0.2073 -0.6957
vn 0.6383 -0.0420 0.7686
vn -0.6512 -0.3172 0.6894
vn -0.6099 -0.0740 -0.7890
vn 0.6763 0.3468 -0.6499
vn 0.7792 0.1654 0.6046
vn -0.0016 1.0000 -0.0001
vn -0.0000 1.0000 -0.0000
vn -0.6641 -0.2925 -0.6881
vn -0.7629 -0.0973 0.6392
vn 0.6878 0.2073 0.6957
vn 0.6383 -0.0420 -0.7686
vn -0.6512 -0.3172 -0.6894
vn -0.6099 -0.0740 0.7890
vn 0.6763 0.3468 0.6499
vn 0.7792 0.1654 -0.6046
vn -0.0016 1.0000 0.0001
vt 0.014614 0.017437
vt 0.000000 0.000617
vt 0.009168 0.984237
vt 0.013080 1.000000
vt 0.015857 0.987084
vt 0.012930 0.995369
vt 0.015857 -0.000000
vt 0.001603 0.028520
vt 0.231370 -0.000000
vt 0.245817 0.005541
vt 0.245817 0.314374
vt 0.238293 0.309402
vt 0.203276 0.138724
vt 0.107048 0.313380
vt 0.159895 0.136213
vt 0.024349 0.258729
vt 0.015857 0.253116
vt 0.261291 0.108056
vt 0.245817 0.108056
vt 0.251227 0.000000
vt 0.255881 0.000000
s 1
usemtl Legs
f 161/88/121 158/89/118 162/90/122 165/91/125
f 162/90/122 163/92/123 164/93/124 165/91/125
f 158/89/118 159/94/119 163/92/123 162/90/122
f 160/95/120 161/88/121 165/91/125 164/93/124
f 159/94/119 160/95/120 164/93/124 163/92/123
f 164/96/124 165/97/125 167/98/126 170/99/126 172/100/126 169/101/126 171/102/126 168/103/126 166/104/126
f 162/105/122 163/106/123 174/107/127 173/108/127
f 178/88/131 182/91/135 179/90/132 175/89/128
f 179/90/132 182/91/135 181/93/134 180/92/133
f 175/89/128 179/90/132 180/92/133 176/94/129
f 177/95/130 181/93/134 182/91/135 178/88/131
f 176/94/129 180/92/133 181/93/134 177/95/130
f 181/96/134 183/104/136 185/103/136 188/102/136 186/101/136 189/100/136 187/99/136 184/98/136 182/97/135
f 179/105/132 190/108/127 191/107/127 180/106/133
